<svg width="44" height="44" viewBox="0 0 44 44" fill="none" xmlns="http://www.w3.org/2000/svg">
<path d="M12.0968 7.14235C13.5367 10.2455 15.0889 10.6934 17.704 11.7451C28.8903 15.912 6.12459 32.7034 20.3913 35.1147C34.654 37.526 45.6398 4.29113 24.2738 3.59932C47.8618 1.8358 44.5167 42.7926 20.5477 41.237C-1.66855 39.7934 1.52812 15.3321 12.0968 7.14235Z" fill="#F69322"/>
<path d="M22.9784 3.7832C21.4903 4.1431 17.1466 5.29079 14.3269 7.50619C14.8684 8.84182 16.1478 9.91353 17.8404 10.2454C20.4555 10.7573 23.0506 9.31369 23.6362 7.01832C23.937 5.85864 23.6602 4.70695 22.9784 3.7832Z" fill="#4D4D4F"/>
<path d="M19.9623 1.93563C17.3472 1.42377 14.7522 2.86738 14.1666 5.16275C14.0944 5.44267 14.0583 5.7186 14.0503 5.99452C15.4461 5.27072 18.4342 4.02306 22.9103 3.69515C22.2405 2.83538 21.2137 2.17956 19.9623 1.93563Z" fill="#4D4D4F"/>
</svg>
