<svg width="20" height="21" viewBox="0 0 20 21" fill="none" xmlns="http://www.w3.org/2000/svg">
<path d="M13.3334 8.48779V6.82113C13.3334 5.93707 12.9822 5.08922 12.3571 4.4641C11.732 3.83898 10.8841 3.48779 10.0001 3.48779C9.11603 3.48779 8.26818 3.83898 7.64306 4.4641C7.01794 5.08922 6.66675 5.93707 6.66675 6.82113V8.48779" stroke="#F69322" stroke-width="1.5" stroke-linecap="round" stroke-linejoin="round"/>
<path d="M15.0001 8.48779H5.00008C4.53984 8.48779 4.16675 8.86089 4.16675 9.32113V17.6545C4.16675 18.1147 4.53984 18.4878 5.00008 18.4878H15.0001C15.4603 18.4878 15.8334 18.1147 15.8334 17.6545V9.32113C15.8334 8.86089 15.4603 8.48779 15.0001 8.48779Z" fill="#FFE6CA" stroke="#F69322" stroke-width="1.5" stroke-linecap="round" stroke-linejoin="round"/>
</svg>
