<svg width="20" height="21" viewBox="0 0 20 21" fill="none" xmlns="http://www.w3.org/2000/svg">
<path d="M14.1666 7.65446C14.1666 8.47855 13.9222 9.28413 13.4644 9.96934C13.0065 10.6545 12.3558 11.1886 11.5944 11.504C10.8331 11.8193 9.9953 11.9018 9.18704 11.7411C8.37879 11.5803 7.63636 11.1835 7.05364 10.6007C6.47092 10.018 6.07408 9.27559 5.91331 8.46734C5.75254 7.65908 5.83506 6.8213 6.15042 6.05995C6.46579 5.29859 6.99984 4.64784 7.68504 4.19C8.37025 3.73216 9.17583 3.48779 9.99992 3.48779C11.105 3.48779 12.1648 3.92678 12.9462 4.70818C13.7276 5.48958 14.1666 6.54939 14.1666 7.65446ZM7.49992 11.8211C6.39485 11.8211 5.33504 12.2601 4.55364 13.0415C3.77224 13.8229 3.33325 14.8827 3.33325 15.9878V16.8211C3.33325 16.8211 4.99992 18.4878 9.99992 18.4878C14.9999 18.4878 16.6666 16.8211 16.6666 16.8211V15.9878C16.6666 14.8827 16.2276 13.8229 15.4462 13.0415C14.6648 12.2601 13.605 11.8211 12.4999 11.8211H7.49992Z" fill="#FFE6CA" stroke="#F69322" stroke-width="1.5" stroke-linecap="round" stroke-linejoin="round"/>
</svg>
