<svg width="51" height="24" viewBox="0 0 51 24" fill="none" xmlns="http://www.w3.org/2000/svg">
<path d="M3 8.2762C5.52153 6.15999 8.70813 5 12 5C15.2919 5 18.4785 6.15999 21 8.2762" stroke="#9C9C9C" stroke-width="2" stroke-linecap="round" stroke-linejoin="round"/>
<path d="M18.45 11.3362C16.6458 9.81338 14.361 8.97803 12 8.97803C9.63902 8.97803 7.3542 9.81338 5.54999 11.3362" stroke="white" stroke-width="2" stroke-linecap="round" stroke-linejoin="round"/>
<path d="M15.87 14.3861C14.7875 13.4724 13.4166 12.9712 12 12.9712C10.5834 12.9712 9.21253 13.4724 8.13 14.3861" stroke="white" stroke-width="2" stroke-linecap="round" stroke-linejoin="round"/>
<circle cx="12" cy="18" r="2" fill="white"/>
<path d="M37.512 14.748H35.384V17.5H33.832V14.748H27.608V13.628L33.336 6.3H35.064L29.576 13.372H33.88V10.94H35.384V13.372H37.512V14.748ZM47.2994 11.836H48.8354V16.204C48.2807 16.6627 47.6354 17.0147 46.8994 17.26C46.1634 17.5053 45.3954 17.628 44.5954 17.628C43.4647 17.628 42.446 17.3827 41.5394 16.892C40.6327 16.3907 39.918 15.708 39.3954 14.844C38.8834 13.9693 38.6274 12.988 38.6274 11.9C38.6274 10.812 38.8834 9.83067 39.3954 8.956C39.918 8.08133 40.6327 7.39867 41.5394 6.908C42.4567 6.41733 43.486 6.172 44.6274 6.172C45.5234 6.172 46.334 6.32133 47.0594 6.62C47.7954 6.908 48.4194 7.33467 48.9314 7.9L47.9394 8.892C47.0434 8.028 45.9607 7.596 44.6914 7.596C43.838 7.596 43.07 7.78267 42.3874 8.156C41.7154 8.51867 41.1874 9.03067 40.8034 9.692C40.4194 10.3427 40.2274 11.0787 40.2274 11.9C40.2274 12.7107 40.4194 13.4467 40.8034 14.108C41.1874 14.7587 41.7154 15.2707 42.3874 15.644C43.07 16.0173 43.8327 16.204 44.6754 16.204C45.678 16.204 46.5527 15.964 47.2994 15.484V11.836Z" fill="white"/>
</svg>
